<svg data-v-5e8a4310="" xmlns="http://www.w3.org/2000/svg" width="64" height="60" viewBox="0 0 84.057 67.086">
    <path fill="white" fill-rule="evenodd"
          d="M35.65 57.433c-.457-6.678.275-13.173 3.568-19.12-6.678 5.855-13.905 7.594-22.047 3.477 1.555-2.196 1.28-4.483.091-6.77 8.325-6.037 16.467-12.075 24.883-18.113v8.142c.732-1.006 1.464-1.83 2.104-2.653.183-.274.366-.549.366-.823v-8.874c0-.183 0-.366-.091-.549A2475 2475 0 0 0 9.395 37.948c1.098 2.012 4.666 4.94 7.684 6.22 5.764 2.38 11.527 2.562 17.382.092v.274c-.915 3.294-1.372 6.587-1.28 9.972q0 .549-.55.549c-1.28.274-2.012 1.098-2.378 2.287 1.83.091 3.568.091 5.397.091m24.975-2.47c-.092-.457-.092-.823-.183-1.189-.458-4.117-1.556-8.05-3.568-11.71-1.83-3.384-4.3-6.22-7.868-7.958-1.28-.64-2.653-1.007-4.116-1.007 8.69 4.666 12.716 12.167 13.173 21.864H47.268c0-1.555.732-2.836 2.104-3.659-2.287-.274-3.75.732-4.208 2.836-.183.64-.366 1.006-1.006 1.098-.366.091-.823.366-1.098.64-.366.366-.64.915-1.006 1.464h19.668c1.007 0 2.013-.366 2.836-1.006 2.287-1.739 2.013-5.49-.366-6.77-.274-.092-.549-.183-.914-.275 1.463 2.653.182 5.215-2.653 5.672M52.3 24.683h-4.757c-1.647 0-2.928 1.006-3.202 2.378h10.246c.274-1.463-.092-3.933-.64-5.305-.915-1.922-2.836-2.928-4.94-2.653-1.098.183-2.105.548-2.928 1.555 4.117-.64 5.946.549 6.22 4.025m-12.625.549c0-1.006-.823-1.83-1.83-1.83-1.006 0-1.829.824-1.829 1.83s.823 1.83 1.83 1.83c1.006 0 1.83-.824 1.83-1.83"></path>
</svg>