<svg xmlns="http://www.w3.org/2000/svg" width="1061" height="157" fill="none" viewBox="0 0 1061 157">
  <path fill="#fff" fill-rule="evenodd" d="M91.118 157c-1.588-23.153.952-45.673 12.381-66.288-23.176 20.299-48.257 26.325-76.513 12.052 5.397-7.612 4.445-15.542.318-23.47 28.89-20.934 57.147-41.867 86.355-62.801v28.228c2.54-3.488 5.08-6.343 7.302-9.198.635-.951 1.27-1.903 1.27-2.854V1.903c0-.634 0-1.269-.318-1.903A8595.228 8595.228 0 0 0 0 89.443c3.81 6.978 16.192 17.127 26.669 21.568 20.001 8.246 40.002 8.88 60.321.316v.952c-3.174 11.419-4.762 22.837-4.444 34.572 0 1.269-.635 1.904-1.905 1.904-4.445.95-6.985 3.806-8.255 7.929 6.35.316 12.382.316 18.732.316Zm86.672-8.563c-.316-1.586-.316-2.855-.634-4.123-1.587-14.274-5.397-27.911-12.383-40.598-6.349-11.736-14.921-21.568-27.303-27.595-4.444-2.22-9.207-3.488-14.287-3.488 30.161 16.175 44.131 42.184 45.718 75.804h-37.464c0-5.392 2.541-9.833 7.303-12.688-7.936-.95-13.017 2.538-14.604 9.833-.635 2.22-1.27 3.489-3.492 3.806-1.27.317-2.858 1.27-3.81 2.221-1.27 1.268-2.223 3.172-3.492 5.075H181.6c3.493 0 6.985-1.269 9.842-3.49 7.937-6.026 6.985-19.03-1.27-23.471-.951-.316-1.904-.634-3.174-.951 5.079 9.198.634 18.079-9.208 19.665ZM148.899 43.453H132.39c-5.714 0-10.159 3.489-11.112 8.246h35.558c.953-5.075-.318-13.638-2.222-18.396-3.175-6.66-9.841-10.15-17.144-9.198-3.81.634-7.302 1.903-10.159 5.392 14.286-2.22 20.636 1.903 21.588 13.956Zm-43.812 1.903c0-3.49-2.857-6.344-6.35-6.344-3.492 0-6.35 2.855-6.35 6.344 0 3.489 2.858 6.343 6.35 6.343 3.493 0 6.35-2.854 6.35-6.343Z" clip-rule="evenodd"/>
  <path fill="#fff" d="M224.03 154.408v-37.303l-38.741-66.979h28.792l16.464 30.305a163.552 163.552 0 0 1 2.942 5.739l2.943 5.599a306.222 306.222 0 0 1 2.731-5.6 331.967 331.967 0 0 1 2.873-5.738l15.693-30.305h28.653l-37.901 66.979v37.303H224.03Zm65.652 0V50.126h77.762v21.416h-52.542V91.63h48.549v20.786h-48.549v20.577h52.542v21.416h-77.762Zm84.988 0V50.126h25.22v82.866h46.237v21.416H374.67Zm77.281 0V50.126h25.22v82.866h46.238v21.416h-71.458Zm120.087 1.679c-9.437 0-17.934-2.122-25.502-6.369-7.519-4.292-13.474-10.451-17.866-18.477-4.386-8.024-6.584-17.66-6.584-28.904 0-11.338 2.198-21.02 6.584-29.045 4.392-8.072 10.347-14.23 17.866-18.477 7.568-4.245 16.065-6.368 25.502-6.368 9.387 0 17.84 2.123 25.359 6.368 7.568 4.246 13.543 10.405 17.934 18.477 4.391 8.025 6.584 17.707 6.584 29.045 0 11.291-2.193 20.949-6.584 28.974-4.391 8.026-10.366 14.161-17.934 18.407-7.519 4.247-15.972 6.369-25.359 6.369Zm0-21.975c7.469 0 13.429-2.777 17.865-8.329 4.435-5.552 6.653-13.368 6.653-23.446 0-10.125-2.218-17.964-6.653-23.516-4.436-5.599-10.396-8.398-17.865-8.398-7.475 0-13.45 2.8-17.934 8.398-4.441 5.552-6.654 13.39-6.654 23.516 0 10.078 2.213 17.894 6.654 23.446 4.484 5.552 10.459 8.329 17.934 8.329Zm73.009 20.296L617.234 50.126h27.11l10.371 46.332a762.138 762.138 0 0 1 2.803 13.858 711.324 711.324 0 0 1 2.66 13.717l2.803-13.717c.979-4.62 2.031-9.239 3.152-13.858l11.138-46.332h25.011l11.138 46.332a470.76 470.76 0 0 1 3.014 13.717c.979 4.573 1.938 9.146 2.872 13.718a1354.5 1354.5 0 0 1 2.591-13.718c.935-4.572 1.894-9.145 2.872-13.717l10.366-46.332h27.184l-27.882 104.282h-27.882l-13.38-52.701a206.663 206.663 0 0 1-1.682-7.139 507.172 507.172 0 0 0-1.751-8.468c-.61 3.032-1.19 5.856-1.75 8.468a211.411 211.411 0 0 1-1.682 7.139l-13.312 52.701h-27.951Z"/>
  <path fill="#33383D" d="M804.367 154.408h-38.74V50.126h38.74c10.602 0 19.803 2.147 27.602 6.439 7.799 4.246 13.823 10.265 18.076 18.057 4.293 7.792 6.442 17.007 6.442 27.645 0 10.638-2.124 19.853-6.373 27.644-4.204 7.793-10.208 13.835-18.008 18.127-7.799 4.247-17.044 6.37-27.739 6.37Zm-13.523-20.997h12.259c9.574 0 16.626-2.613 21.16-7.838 4.578-5.273 6.865-13.041 6.865-23.306s-2.311-18.01-6.934-23.236c-4.627-5.272-11.748-7.908-21.371-7.908h-11.979v62.288Zm119.106 22.676c-9.432 0-17.934-2.122-25.502-6.369-7.519-4.292-13.474-10.451-17.86-18.477-4.392-8.024-6.59-17.66-6.59-28.904 0-11.338 2.198-21.02 6.59-29.045 4.386-8.072 10.341-14.23 17.86-18.477 7.568-4.245 16.07-6.368 25.502-6.368 9.388 0 17.841 2.123 25.359 6.368 7.568 4.246 13.548 10.405 17.934 18.477 4.392 8.025 6.585 17.707 6.585 29.045 0 11.291-2.193 20.949-6.585 28.974-4.386 8.026-10.366 14.161-17.934 18.407-7.518 4.247-15.971 6.369-25.359 6.369Zm0-21.975c7.475 0 13.43-2.777 17.865-8.329 4.436-5.552 6.654-13.368 6.654-23.446 0-10.125-2.218-17.964-6.654-23.516-4.435-5.599-10.39-8.398-17.865-8.398-7.474 0-13.449 2.8-17.934 8.398-4.436 5.552-6.653 13.39-6.653 23.516 0 10.078 2.217 17.894 6.653 23.446 4.485 5.552 10.46 8.329 17.934 8.329Zm103.83 21.975c-10.08 0-18.91-2.216-26.478-6.649-7.568-4.432-13.449-10.662-17.654-18.686-4.204-8.072-6.304-17.544-6.304-28.415 0-11.338 2.193-21.02 6.584-29.045 4.392-8.072 10.347-14.23 17.866-18.477 7.563-4.245 16.086-6.368 25.566-6.368 8.22 0 15.72 1.563 22.49 4.689 6.82 3.08 12.4 7.395 16.75 12.947 4.34 5.553 6.88 12.038 7.63 19.457h-25.64c-.94-4.62-3.15-8.282-6.66-10.988-3.45-2.753-8.01-4.13-13.66-4.13-8.12 0-14.429 2.823-18.913 8.47-4.436 5.598-6.654 13.413-6.654 23.445 0 10.031 2.243 17.847 6.727 23.446 4.529 5.552 10.9 8.329 19.12 8.329 6.64 0 11.89-1.658 15.76-4.97 3.93-3.312 5.94-7.652 6.03-13.018h-20.88V97.647H1061v14.138c0 8.819-2.01 16.564-6.02 23.236-3.97 6.626-9.51 11.805-16.61 15.537-7.1 3.686-15.29 5.529-24.59 5.529Z"/>
</svg>
